<svg xmlns="http://www.w3.org/2000/svg" xmlns:xlink="http://www.w3.org/1999/xlink" viewBox="0 0 124.44 144"><defs><style>.cls-1{fill:#383737;}.cls-2{fill:#ed3432;}.cls-3{fill:url(#linear-gradient);}.cls-4{fill:#fff;}</style><linearGradient id="linear-gradient" x1="63.455" y1="66.448" x2="107.078" y2="66.448" gradientUnits="userSpaceOnUse"><stop offset="0" stop-color="#35b34a"/><stop offset="0.992" stop-color="#85c563"/></linearGradient></defs><title>depviz_logo_hex</title><g id="Layer_2" data-name="Layer 2"><g id="black_logo" data-name="black logo"><polygon class="cls-1" points="-0.134 36 -0.134 108 62.22 144 124.574 108 124.574 36 62.22 0 -0.134 36"/><path class="cls-2" d="M56.845,61.432a6.847,6.847,0,0,1,6.488,7.447c-.42,4.309-.95,5.631,1.8,8.8.666.767-.881-1.068-.231-.287,2.615,3.142,3.651,2.3,7.82,2.639A7.056,7.056,0,0,1,78.5,90.053a7.275,7.275,0,0,1-8.36,4.187,6.813,6.813,0,0,1-5.485-7.308c.441-4.308,1.268-5.259-1.485-8.427-.666-.767.881,1.068.231.287-2.615-3.142-3.966-2.674-8.135-3.012A7.056,7.056,0,0,1,49.49,65.758,7.194,7.194,0,0,1,56.845,61.432Z"/><path class="cls-3" d="M106.861,43.723a8.054,8.054,0,0,1-6.061,9.912A15.457,15.457,0,0,0,89.99,61.256c-.624,1.018-6.9,10.8-7.544,11.8a15.629,15.629,0,0,0-2.1,12.819,8.3,8.3,0,0,1-9.2,10.018A8.557,8.557,0,0,1,63.492,88a8.014,8.014,0,0,1,6.259-8.738A15.584,15.584,0,0,0,80.582,71.5c.624-1.018,6.9-10.8,7.544-11.8A15.3,15.3,0,0,0,90.2,47.019,8.3,8.3,0,0,1,99.407,37,8.461,8.461,0,0,1,106.861,43.723Z"/><path class="cls-4" d="M27.25,82.61c.884-4.309,2.265-7.733,3.646-7.733,1.16,0,2.071,2.017,2.071,2.651-.056,2.017-1.05,3.148-2.044,4.585a42.556,42.556,0,0,0-1.3,8.368c0,1.16.193,1.905.635,1.905,1.133,0,3.7-3.424,4.2-3.424.276,0,.5.414.5,1.049,0,2.4-3.452,5.552-6.353,5.552-1.049,0-1.685-.967-1.988-2.485A5.36,5.36,0,0,1,21.7,95.7a4.109,4.109,0,0,1-4.336-4.363,9.736,9.736,0,0,1,2.044-6.1,7.575,7.575,0,0,1,5.551-2.955,7.044,7.044,0,0,1,1.657.165Zm-.3,1.547a6.605,6.605,0,0,0-5.524,6.462c0,1.077.332,2.127,1.574,2.127s2.68-.884,3.37-3.121A34.984,34.984,0,0,1,26.946,84.157Z"/><path class="cls-4" d="M46.11,89.044c.276,0,.387.332.387.967,0,1.547-1.988,5.635-8.313,5.635-2.485,0-4.888-1.3-4.888-4.309,0-5.275,3.479-9.114,7.318-9.114,2.071,0,3.2,1.1,3.2,2.651,0,3.259-3.535,3.7-6.463,5.054v.69c0,1.52,1.63,1.851,2.651,1.851C43.652,92.469,45.475,89.044,46.11,89.044Zm-8.562-1.021C39.1,87,40.393,86.5,40.393,85.372c0-.414-.276-.69-.856-.69C38.432,84.681,37.825,86.283,37.549,88.023Z"/><path class="cls-4" d="M58.316,86.476a8.024,8.024,0,0,1-4.668,7.016h.332c3.148,0,5.634-2.734,6.324-3.646.414-.553.773-.8.994-.8.276,0,.387.359.387,1,0,2.043-2.044,4.28-4.585,5.247a11.508,11.508,0,0,1-3.921.553c-1.906,0-3.591-.553-3.591-2.127a3.306,3.306,0,0,1,.249-1.1c3.065,0,4.446-2.707,4.446-5.8a1.591,1.591,0,0,0-1.574-1.574,4.07,4.07,0,0,0-3.094,2.4,11.988,11.988,0,0,0-1.436,3.756c-.773,4.475-1.464,10.3-1.768,10.882a1.339,1.339,0,0,1-.994.773c-.773,0-1.437-.8-1.713-1.132a2.006,2.006,0,0,1-.524-1.437,50.74,50.74,0,0,1,4.06-18.007,1.135,1.135,0,0,1,1.077-.773c.884,0,1.712,1.353,2.017,2.209a4.621,4.621,0,0,1,3.673-1.629C57.073,82.279,58.316,84.184,58.316,86.476Z"/><path class="cls-4" d="M82.945,90.4c0-3.286,1.133-8.645,3.148-8.645,1.16,0,1.63,2.017,1.63,2.651-.056,2.486-1.326,5.635-1.326,7.126a.873.873,0,0,0,.967.855c1.077,0,3.535-3.342,4.06-3.342.276,0,.387.332.387.967,0,2.4-3.093,5.552-6.1,5.552C83.552,95.563,82.945,93.215,82.945,90.4Zm3.148-13.533c0-1.021.773-3.479,1.988-3.479,1.188,0,2.044,2.292,2.044,2.982a3.106,3.106,0,0,1-3.286,3.148A5.275,5.275,0,0,1,86.093,76.865Z"/><path class="cls-4" d="M98.575,83.466c1.354,0,3.231.082,3.231,1.159a6.954,6.954,0,0,1-.469,2.21,19.448,19.448,0,0,1-5.027,5.827,9.634,9.634,0,0,0,2.237.3c3.2,0,5.026-3.922,5.8-3.922.276,0,.387.332.387.967,0,3.011-3.452,5.772-8.009,5.772-1.6,0-4.2-.69-4.2-1.657a7.938,7.938,0,0,1,.193-1.6c1.132-1.547,5.523-3.784,5.523-5.662,0-.193-.553-.276-1.3-.276-1.437,0-3.674.249-4.558.249a1.341,1.341,0,0,1-1.408-1.491A3.342,3.342,0,0,1,94.432,82.2C95.7,82.2,97.056,83.466,98.575,83.466Z"/></g></g></svg>