<?xml version="1.0" encoding="UTF-8"?>
<svg xmlns="http://www.w3.org/2000/svg" xmlns:xlink="http://www.w3.org/1999/xlink" width="32.57pt" height="32.57pt" viewBox="136.320312 55.453125 32.57 32.57" version="1.1">
<path style="stroke:none;fill-rule:evenodd;fill:rgb(10.438538%,9.364319%,8.999634%);fill-opacity:1;" d="M 152.609375 55.453125 C 143.613281 55.453125 136.320312 62.746094 136.320312 71.746094 C 136.320312 78.941406 140.988281 85.046875 147.460938 87.203125 C 148.273438 87.351562 148.570312 86.847656 148.570312 86.414062 C 148.570312 86.027344 148.558594 85.003906 148.550781 83.644531 C 144.019531 84.628906 143.0625 81.460938 143.0625 81.460938 C 142.320312 79.578125 141.253906 79.078125 141.253906 79.078125 C 139.773438 78.070312 141.367188 78.089844 141.367188 78.089844 C 143 78.203125 143.859375 79.769531 143.859375 79.769531 C 145.3125 82.257812 147.675781 81.539062 148.601562 81.121094 C 148.75 80.070312 149.171875 79.351562 149.636719 78.945312 C 146.019531 78.53125 142.214844 77.136719 142.214844 70.894531 C 142.214844 69.113281 142.851562 67.660156 143.894531 66.523438 C 143.726562 66.109375 143.164062 64.453125 144.054688 62.210938 C 144.054688 62.210938 145.421875 61.773438 148.53125 63.878906 C 149.832031 63.519531 151.226562 63.339844 152.609375 63.332031 C 153.992188 63.339844 155.386719 63.519531 156.6875 63.878906 C 159.796875 61.773438 161.164062 62.210938 161.164062 62.210938 C 162.050781 64.453125 161.492188 66.109375 161.324219 66.523438 C 162.371094 67.660156 163 69.113281 163 70.894531 C 163 77.152344 159.191406 78.527344 155.5625 78.929688 C 156.148438 79.433594 156.667969 80.429688 156.667969 81.949219 C 156.667969 84.125 156.648438 85.882812 156.648438 86.414062 C 156.648438 86.851562 156.941406 87.359375 157.769531 87.199219 C 164.234375 85.039062 168.898438 78.941406 168.898438 71.746094 C 168.898438 62.746094 161.605469 55.453125 152.609375 55.453125" />
</svg>
